<mxfile host="app.diagrams.net" agent="Mozilla/5.0 (X11; Linux x86_64) AppleWebKit/537.36 (KHTML, like Gecko) Chrome/131.0.0.0 Safari/537.36" version="25.0.3">
  <diagram name="Page-1" id="LwkyBsAJxQn83dvknyzN">
    <mxGraphModel dx="1434" dy="754" grid="1" gridSize="10" guides="1" tooltips="1" connect="1" arrows="1" fold="1" page="1" pageScale="1" pageWidth="827" pageHeight="1169" math="0" shadow="0">
      <root>
        <mxCell id="0" />
        <mxCell id="1" parent="0" />
        <mxCell id="36gYeei36n6nMp-v2vSk-4" style="edgeStyle=orthogonalEdgeStyle;rounded=0;orthogonalLoop=1;jettySize=auto;html=1;entryX=0;entryY=0.5;entryDx=0;entryDy=0;" parent="1" edge="1" source="X-8ijhAk348ClDdlAnx2-1">
          <mxGeometry relative="1" as="geometry">
            <mxPoint x="230" y="273" as="sourcePoint" />
            <mxPoint x="519.9999999999998" y="273" as="targetPoint" />
          </mxGeometry>
        </mxCell>
        <mxCell id="36gYeei36n6nMp-v2vSk-13" style="edgeStyle=orthogonalEdgeStyle;rounded=0;orthogonalLoop=1;jettySize=auto;html=1;" parent="1" edge="1">
          <mxGeometry relative="1" as="geometry">
            <mxPoint x="519.9999999999998" y="330" as="targetPoint" />
            <mxPoint x="230" y="330" as="sourcePoint" />
          </mxGeometry>
        </mxCell>
        <mxCell id="36gYeei36n6nMp-v2vSk-14" value="http request + modify cookies" style="edgeLabel;html=1;align=center;verticalAlign=middle;resizable=0;points=[];" parent="36gYeei36n6nMp-v2vSk-13" vertex="1" connectable="0">
          <mxGeometry x="-0.0751" y="1" relative="1" as="geometry">
            <mxPoint y="1" as="offset" />
          </mxGeometry>
        </mxCell>
        <mxCell id="36gYeei36n6nMp-v2vSk-1" value="Browser" style="swimlane;whiteSpace=wrap;html=1;" parent="1" vertex="1">
          <mxGeometry x="30" y="230" width="200" height="200" as="geometry" />
        </mxCell>
        <mxCell id="36gYeei36n6nMp-v2vSk-20" value="save cookies in ram or dist" style="text;html=1;align=center;verticalAlign=middle;resizable=0;points=[];autosize=1;strokeColor=none;fillColor=none;" parent="36gYeei36n6nMp-v2vSk-1" vertex="1">
          <mxGeometry x="20" y="70" width="170" height="30" as="geometry" />
        </mxCell>
        <mxCell id="36gYeei36n6nMp-v2vSk-11" style="edgeStyle=orthogonalEdgeStyle;rounded=0;orthogonalLoop=1;jettySize=auto;html=1;entryX=1;entryY=0.75;entryDx=0;entryDy=0;exitX=0;exitY=0.75;exitDx=0;exitDy=0;" parent="1" edge="1">
          <mxGeometry relative="1" as="geometry">
            <mxPoint x="519.9999999999998" y="302" as="sourcePoint" />
            <mxPoint x="230" y="302" as="targetPoint" />
          </mxGeometry>
        </mxCell>
        <mxCell id="36gYeei36n6nMp-v2vSk-12" value="http response + set cookies" style="edgeLabel;html=1;align=center;verticalAlign=middle;resizable=0;points=[];" parent="36gYeei36n6nMp-v2vSk-11" vertex="1" connectable="0">
          <mxGeometry x="0.0942" y="-1" relative="1" as="geometry">
            <mxPoint y="1" as="offset" />
          </mxGeometry>
        </mxCell>
        <mxCell id="36gYeei36n6nMp-v2vSk-15" style="edgeStyle=orthogonalEdgeStyle;rounded=0;orthogonalLoop=1;jettySize=auto;html=1;" parent="1" edge="1">
          <mxGeometry relative="1" as="geometry">
            <mxPoint x="230" y="357" as="targetPoint" />
            <mxPoint x="520" y="357" as="sourcePoint" />
          </mxGeometry>
        </mxCell>
        <mxCell id="36gYeei36n6nMp-v2vSk-16" value="http reponse accordingly with cookies" style="edgeLabel;html=1;align=center;verticalAlign=middle;resizable=0;points=[];" parent="36gYeei36n6nMp-v2vSk-15" vertex="1" connectable="0">
          <mxGeometry x="0.0847" y="-2" relative="1" as="geometry">
            <mxPoint y="2" as="offset" />
          </mxGeometry>
        </mxCell>
        <mxCell id="36gYeei36n6nMp-v2vSk-2" value="Server" style="swimlane;whiteSpace=wrap;html=1;" parent="1" vertex="1">
          <mxGeometry x="520" y="230" width="200" height="200" as="geometry" />
        </mxCell>
        <mxCell id="36gYeei36n6nMp-v2vSk-6" value="database" style="rounded=0;whiteSpace=wrap;html=1;" parent="36gYeei36n6nMp-v2vSk-2" vertex="1">
          <mxGeometry x="40" y="130" width="120" height="60" as="geometry" />
        </mxCell>
        <mxCell id="36gYeei36n6nMp-v2vSk-7" value="save value" style="text;html=1;align=center;verticalAlign=middle;resizable=0;points=[];autosize=1;strokeColor=none;fillColor=none;" parent="36gYeei36n6nMp-v2vSk-2" vertex="1">
          <mxGeometry x="10" y="40" width="80" height="30" as="geometry" />
        </mxCell>
        <mxCell id="36gYeei36n6nMp-v2vSk-17" style="edgeStyle=orthogonalEdgeStyle;rounded=0;orthogonalLoop=1;jettySize=auto;html=1;exitX=0.993;exitY=0.471;exitDx=0;exitDy=0;exitPerimeter=0;" parent="36gYeei36n6nMp-v2vSk-2" source="36gYeei36n6nMp-v2vSk-7" edge="1">
          <mxGeometry relative="1" as="geometry">
            <mxPoint x="150" y="130" as="targetPoint" />
          </mxGeometry>
        </mxCell>
        <mxCell id="36gYeei36n6nMp-v2vSk-18" value="check cookies" style="text;html=1;align=center;verticalAlign=middle;resizable=0;points=[];autosize=1;strokeColor=none;fillColor=none;" parent="36gYeei36n6nMp-v2vSk-2" vertex="1">
          <mxGeometry y="90" width="100" height="30" as="geometry" />
        </mxCell>
        <mxCell id="36gYeei36n6nMp-v2vSk-19" style="edgeStyle=orthogonalEdgeStyle;rounded=0;orthogonalLoop=1;jettySize=auto;html=1;entryX=0.684;entryY=0.011;entryDx=0;entryDy=0;entryPerimeter=0;exitX=1.027;exitY=0.46;exitDx=0;exitDy=0;exitPerimeter=0;" parent="36gYeei36n6nMp-v2vSk-2" source="36gYeei36n6nMp-v2vSk-18" target="36gYeei36n6nMp-v2vSk-6" edge="1">
          <mxGeometry relative="1" as="geometry" />
        </mxCell>
        <mxCell id="X-8ijhAk348ClDdlAnx2-2" value="2" style="ellipse;whiteSpace=wrap;html=1;aspect=fixed;rotation=0;gradientColor=#223548;strokeColor=none;gradientDirection=east;fillColor=#5b738b;rounded=0;pointerEvents=0;fontFamily=Helvetica;fontSize=16;fontColor=#FFFFFF;spacingTop=4;spacingBottom=4;spacingLeft=4;spacingRight=4;points=[];fontStyle=1" vertex="1" parent="36gYeei36n6nMp-v2vSk-2">
          <mxGeometry x="30" y="20" width="30" height="30" as="geometry" />
        </mxCell>
        <mxCell id="X-8ijhAk348ClDdlAnx2-8" value="6" style="ellipse;whiteSpace=wrap;html=1;aspect=fixed;rotation=0;gradientColor=#223548;strokeColor=none;gradientDirection=east;fillColor=#5b738b;rounded=0;pointerEvents=0;fontFamily=Helvetica;fontSize=16;fontColor=#FFFFFF;spacingTop=4;spacingBottom=4;spacingLeft=4;spacingRight=4;points=[];fontStyle=1" vertex="1" parent="36gYeei36n6nMp-v2vSk-2">
          <mxGeometry x="30" y="70" width="30" height="30" as="geometry" />
        </mxCell>
        <mxCell id="X-8ijhAk348ClDdlAnx2-3" value="3" style="ellipse;whiteSpace=wrap;html=1;aspect=fixed;rotation=0;gradientColor=#223548;strokeColor=none;gradientDirection=east;fillColor=#5b738b;rounded=0;pointerEvents=0;fontFamily=Helvetica;fontSize=16;fontColor=#FFFFFF;spacingTop=4;spacingBottom=4;spacingLeft=4;spacingRight=4;points=[];fontStyle=1" vertex="1" parent="1">
          <mxGeometry x="260" y="290" width="30" height="30" as="geometry" />
        </mxCell>
        <mxCell id="X-8ijhAk348ClDdlAnx2-4" value="" style="edgeStyle=orthogonalEdgeStyle;rounded=0;orthogonalLoop=1;jettySize=auto;html=1;entryX=0;entryY=0.5;entryDx=0;entryDy=0;" edge="1" parent="1" target="X-8ijhAk348ClDdlAnx2-1">
          <mxGeometry relative="1" as="geometry">
            <mxPoint x="230" y="273" as="sourcePoint" />
            <mxPoint x="519.9999999999998" y="273" as="targetPoint" />
          </mxGeometry>
        </mxCell>
        <mxCell id="X-8ijhAk348ClDdlAnx2-5" value="http request" style="edgeLabel;html=1;align=center;verticalAlign=middle;resizable=0;points=[];" vertex="1" connectable="0" parent="X-8ijhAk348ClDdlAnx2-4">
          <mxGeometry x="-0.0483" y="2" relative="1" as="geometry">
            <mxPoint x="1" y="2" as="offset" />
          </mxGeometry>
        </mxCell>
        <mxCell id="X-8ijhAk348ClDdlAnx2-1" value="1" style="ellipse;whiteSpace=wrap;html=1;aspect=fixed;rotation=0;gradientColor=#223548;strokeColor=none;gradientDirection=east;fillColor=#5b738b;rounded=0;pointerEvents=0;fontFamily=Helvetica;fontSize=16;fontColor=#FFFFFF;spacingTop=4;spacingBottom=4;spacingLeft=4;spacingRight=4;points=[];fontStyle=1" vertex="1" parent="1">
          <mxGeometry x="460" y="260" width="30" height="30" as="geometry" />
        </mxCell>
        <mxCell id="X-8ijhAk348ClDdlAnx2-6" value="4" style="ellipse;whiteSpace=wrap;html=1;aspect=fixed;rotation=0;gradientColor=#223548;strokeColor=none;gradientDirection=east;fillColor=#5b738b;rounded=0;pointerEvents=0;fontFamily=Helvetica;fontSize=16;fontColor=#FFFFFF;spacingTop=4;spacingBottom=4;spacingLeft=4;spacingRight=4;points=[];fontStyle=1" vertex="1" parent="1">
          <mxGeometry x="30" y="300" width="30" height="30" as="geometry" />
        </mxCell>
        <mxCell id="X-8ijhAk348ClDdlAnx2-7" value="5" style="ellipse;whiteSpace=wrap;html=1;aspect=fixed;rotation=0;gradientColor=#223548;strokeColor=none;gradientDirection=east;fillColor=#5b738b;rounded=0;pointerEvents=0;fontFamily=Helvetica;fontSize=16;fontColor=#FFFFFF;spacingTop=4;spacingBottom=4;spacingLeft=4;spacingRight=4;points=[];fontStyle=1" vertex="1" parent="1">
          <mxGeometry x="460" y="315" width="30" height="30" as="geometry" />
        </mxCell>
        <mxCell id="X-8ijhAk348ClDdlAnx2-12" value="7" style="ellipse;whiteSpace=wrap;html=1;aspect=fixed;rotation=0;gradientColor=#223548;strokeColor=none;gradientDirection=east;fillColor=#5b738b;rounded=0;pointerEvents=0;fontFamily=Helvetica;fontSize=16;fontColor=#FFFFFF;spacingTop=4;spacingBottom=4;spacingLeft=4;spacingRight=4;points=[];fontStyle=1" vertex="1" parent="1">
          <mxGeometry x="250" y="360" width="30" height="30" as="geometry" />
        </mxCell>
      </root>
    </mxGraphModel>
  </diagram>
</mxfile>
